<svg width="18" height="24" viewBox="0 0 18 24" fill="none" xmlns="http://www.w3.org/2000/svg">
<path d="M15.8538 11.7598C15.1795 10.4207 14.2881 9.25758 13.2837 8.3902C14.2724 7.45059 14.0449 5.73075 12.8664 5.07056L14.3393 0.939187C14.5025 0.481406 14.1631 0 13.677 0H13.5701C12.5337 0 11.5639 0.453703 10.8936 1.19963C10.4584 0.666844 9.87649 0.257625 9.21181 0.0360937C9.06748 -0.012 8.91148 -0.012 8.76715 0.0360937C8.10251 0.257672 7.52056 0.666844 7.08532 1.19963C6.4151 0.45375 5.44526 0 4.4089 0H4.30193C3.81588 0 3.47646 0.481406 3.63968 0.939187L5.11263 5.07056C3.93359 5.73108 3.70695 7.45092 4.69526 8.39016C2.30379 10.4244 0.762821 14.082 0.7864 17.2031C0.786353 20.3038 2.20952 24 8.98948 24C18.2887 23.9744 18.2678 16.938 15.8538 11.7598ZM6.17698 7.59375C5.24524 7.55831 5.24595 6.22261 6.17698 6.1875H11.802C12.7337 6.22294 12.733 7.55864 11.802 7.59375H6.17698ZM6.45617 2.82502L6.45621 2.82511C6.68885 3.4455 7.57202 3.42914 7.78156 2.80055L7.7816 2.80045C7.98021 2.20472 8.42327 1.71675 8.98957 1.45777C9.55587 1.7167 9.99893 2.20472 10.1975 2.80045L10.1976 2.80055C10.4071 3.42914 11.2903 3.4455 11.5229 2.82506L11.523 2.82497C11.7205 2.29828 12.1123 1.87884 12.5979 1.63645L11.4766 4.78125H6.50243L5.38123 1.63645C5.86681 1.87889 6.25863 2.29833 6.45617 2.82502ZM8.98948 22.5938C4.41588 22.5938 2.1926 20.8305 2.1926 17.2031C2.1926 14.0117 3.86642 10.6068 6.19981 9H11.7792C14.1125 10.6068 15.7864 14.0117 15.7864 17.2031C15.7864 20.8305 13.5631 22.5938 8.98948 22.5938ZM9.97826 15.0919C9.86895 15.0533 9.75776 15.0132 9.64638 14.972V12.8813C9.81227 12.9505 9.90031 13.0335 9.91488 13.0479C10.1707 13.3357 10.6112 13.3641 10.9021 13.1108C11.1949 12.8557 11.2255 12.4115 10.9704 12.1187C10.7475 11.863 10.291 11.5431 9.64643 11.4247V11.1094C9.61189 10.1775 8.27445 10.1782 8.24018 11.1094V11.5008C8.20667 11.5099 8.1731 11.519 8.13907 11.5293C6.5524 11.9554 5.92667 14.2985 7.24324 15.3296C7.50354 15.5338 7.81957 15.721 8.24018 15.915V18.6827C7.96085 18.6373 7.74162 18.5346 7.40098 18.3118C7.07599 18.0991 6.6402 18.1903 6.42762 18.5153C6.21504 18.8402 6.30612 19.276 6.6311 19.4886C7.24067 19.8874 7.6864 20.0435 8.24018 20.0974V20.4844C8.27478 21.4163 9.61217 21.4156 9.64643 20.4844V20.0312C10.067 19.9215 10.4501 19.7139 10.7759 19.4145C11.225 19.0019 11.5281 18.4429 11.6293 17.8405C11.8348 16.6182 11.1713 15.5136 9.97826 15.0919ZM8.24018 14.3159C7.79079 14.0965 7.87273 13.3828 8.24018 13.0498V14.3159ZM10.2425 17.6074C10.1857 17.9452 9.98393 18.3 9.64638 18.5147V16.4733C10.302 16.7762 10.2842 17.3595 10.2425 17.6074Z" fill="white"/>
</svg>
