<svg width="25" height="24" viewBox="0 0 25 24" fill="none" xmlns="http://www.w3.org/2000/svg">
<path d="M14.5674 16.7344C14.5674 17.1227 14.2526 17.4375 13.8643 17.4375H5.42676C4.49484 17.4029 4.49554 16.0655 5.42676 16.0312H13.8643C14.2526 16.0312 14.5674 16.3461 14.5674 16.7344ZM23.0986 12.1603V17.2031C23.0986 18.6247 21.9421 19.7812 20.5205 19.7812H17.3799V23.2969C17.3799 23.6852 17.0651 24 16.6768 24H2.61426C2.22595 24 1.91113 23.6852 1.91113 23.2969V14.1562H1.20801C0.819695 14.1562 0.504883 13.8414 0.504883 13.4531V5.01562C0.504883 4.62731 0.819695 4.3125 1.20801 4.3125H1.91113V3.51562C1.91113 2.35252 2.8574 1.40625 4.02051 1.40625H6.01143C6.74085 0.519328 7.82882 0 8.99188 0H10.2992C11.4622 0 12.5502 0.519328 13.2796 1.40625H15.2706C16.4337 1.40625 17.3799 2.35252 17.3799 3.51562V4.3125H18.0831C18.4714 4.3125 18.7862 4.62731 18.7862 5.01562V13.4531C18.7862 13.8414 18.4714 14.1562 18.0831 14.1562H17.3799V15.5625H21.6924V12.1603C19.4904 11.3454 20.0181 8.10741 22.3956 8.0625C24.7734 8.10759 25.3004 11.3459 23.0986 12.1603ZM17.3799 5.71875H13.1611V12.75H17.3799V5.71875ZM7.53613 5.71875V12.75H11.7549V5.71875H7.53613ZM3.31738 4.3125H15.9736V3.51562C15.9736 3.12792 15.6582 2.8125 15.2705 2.8125H12.9268C12.6916 2.8125 12.4722 2.69503 12.3418 2.49942C11.8854 1.81491 11.1218 1.40625 10.2991 1.40625H8.99188C8.16923 1.40625 7.40563 1.81491 6.94931 2.49942C6.81885 2.69503 6.59938 2.8125 6.36426 2.8125H4.02051C3.6328 2.8125 3.31738 3.12792 3.31738 3.51562V4.3125ZM1.91113 12.75H6.12988V5.71875H1.91113V12.75ZM12.2236 20.7188H7.06738V22.5938H12.2236V20.7188ZM15.9736 22.5938V14.1562H3.31738V22.5938H5.66113V20.0156C5.66113 19.6273 5.97595 19.3125 6.36426 19.3125H12.9268C13.3151 19.3125 13.6299 19.6273 13.6299 20.0156V22.5938H15.9736ZM21.6924 16.9688H17.3799V18.375H20.5205C21.1667 18.375 21.6924 17.8493 21.6924 17.2031V16.9688ZM23.0986 10.1719C23.0986 9.78417 22.7832 9.46875 22.3955 9.46875C21.464 9.50409 21.4642 10.8398 22.3955 10.875C22.7832 10.875 23.0986 10.5596 23.0986 10.1719Z" fill="white"/>
</svg>
