<svg width="25" height="24" viewBox="0 0 25 24" fill="none" xmlns="http://www.w3.org/2000/svg">
<path d="M14.6909 5.20481L12.2182 10.8298C12.062 11.1853 11.6471 11.3468 11.2916 11.1905C10.9361 11.0342 10.7746 10.6194 10.9309 10.2639L12.9701 5.625H10.9528C10.5644 5.625 10.2496 5.31019 10.2496 4.92188C10.2496 4.53356 10.5644 4.21875 10.9528 4.21875H14.0472C14.5548 4.21875 14.8952 4.74014 14.6909 5.20481ZM21.5472 4.21875H18.4528C18.0644 4.21875 17.7496 4.53356 17.7496 4.92188C17.7496 5.31019 18.0644 5.625 18.4528 5.625H20.4701L18.4309 10.2639C18.2746 10.6194 18.4362 11.0343 18.7916 11.1906C19.1471 11.3468 19.562 11.1853 19.7182 10.8299L22.1909 5.20486C22.3952 4.74014 22.0548 4.21875 21.5472 4.21875ZM6.54725 4.21875H3.45275C3.06444 4.21875 2.74962 4.53356 2.74962 4.92188C2.74962 5.31019 3.06444 5.625 3.45275 5.625H5.47011L3.43091 10.2639C3.27463 10.6194 3.43616 11.0343 3.79161 11.1906C4.14711 11.3468 4.56195 11.1853 4.71823 10.8299L7.19094 5.20486C7.39517 4.74014 7.05481 4.21875 6.54725 4.21875ZM24.4531 2.10938V17.1094C24.4531 18.2725 23.5069 19.2188 22.3438 19.2188H16.2522L17.3933 23.0985C17.5258 23.5488 17.1882 24 16.7188 24H8.28125C7.81184 24 7.47425 23.5488 7.60667 23.0985L8.7478 19.2188H2.65625C1.49314 19.2188 0.546875 18.2725 0.546875 17.1094V2.10938C0.546875 0.946266 1.49314 0 2.65625 0H22.3438C23.5069 0 24.4531 0.946266 24.4531 2.10938ZM9.45312 14.0625H15.5469V1.40625H9.45312V14.0625ZM1.95312 14.0625H8.04688V1.40625H2.65625C2.26855 1.40625 1.95312 1.72167 1.95312 2.10938V14.0625ZM15.779 22.5938L14.7864 19.2188H10.2136L9.22091 22.5938H15.779ZM23.0469 15.4688H1.95312V17.1094C1.95312 17.4971 2.26855 17.8125 2.65625 17.8125H22.3438C22.7315 17.8125 23.0469 17.4971 23.0469 17.1094V15.4688ZM23.0469 2.10938C23.0469 1.72167 22.7315 1.40625 22.3438 1.40625H16.9531V14.0625H23.0469V2.10938Z" fill="white"/>
</svg>
