<svg width="24" height="24" viewBox="0 0 24 24" fill="none" xmlns="http://www.w3.org/2000/svg">
<path d="M17.2031 10.4285C13.4553 10.4285 10.4062 13.4775 10.4062 17.2253C10.748 26.2299 23.6596 26.2275 24 17.2253C24 13.4775 20.9509 10.4285 17.2031 10.4285ZM11.8125 17.2253C11.8125 14.2736 14.1974 11.8687 17.1414 11.8355C16.7603 11.8439 16.4538 12.1548 16.4538 12.5378V12.9292C16.4203 12.9384 16.3867 12.9475 16.3527 12.9577C15.547 13.2005 14.9453 13.8879 14.7825 14.7518C14.6328 15.5456 14.8912 16.3144 15.4568 16.758C15.7171 16.9622 16.0332 17.1495 16.4538 17.3435V20.1111C16.1746 20.0656 15.955 19.963 15.6146 19.7402C15.2895 19.5276 14.8538 19.6187 14.6412 19.9437C14.4286 20.2687 14.5197 20.7045 14.8447 20.9171C15.4543 21.3159 15.9 21.472 16.4538 21.5258V21.9129C16.4538 22.296 16.7603 22.6069 17.1414 22.6152C14.1974 22.5819 11.8125 20.1771 11.8125 17.2253ZM17.8601 17.9018C18.8483 18.3809 18.5031 19.5381 17.8601 19.9432V17.9018ZM16.4538 15.7444C16.4085 15.7138 16.3648 15.683 16.3248 15.6516C16.1761 15.535 16.1131 15.2841 16.1644 15.0123C16.1983 14.8324 16.2907 14.6276 16.4538 14.4782V15.7444ZM17.2031 22.616C17.1908 22.616 17.1786 22.6156 17.1662 22.6155C17.5502 22.6105 17.8601 22.298 17.8601 21.9128V21.4597C18.2806 21.35 18.6637 21.1424 18.9895 20.843C19.4386 20.4304 19.7417 19.8714 19.8429 19.269C20.0485 18.0467 19.3849 16.9421 18.1919 16.5204C18.0826 16.4818 17.9715 16.4417 17.8601 16.4005V14.3099C18.0261 14.3791 18.114 14.4621 18.1285 14.4765C18.3844 14.7642 18.8248 14.7926 19.1158 14.5393C19.4085 14.2842 19.4391 13.84 19.184 13.5472C18.9612 13.2915 18.5047 12.9716 17.8601 12.8531V12.5379C17.8601 12.1527 17.5503 11.8402 17.1663 11.8352C24.3334 12.0598 24.3652 22.343 17.2031 22.616ZM6.32812 0.0222168C2.8388 0.0222168 0 2.86101 0 6.35034C0.318141 14.7339 12.3394 14.7316 12.6562 6.35025C12.6562 2.86101 9.81745 0.0222168 6.32812 0.0222168ZM6.32812 8.45972C5.16502 8.45972 4.21875 7.51345 4.21875 6.35034C4.32478 3.5558 8.33189 3.55659 8.4375 6.35039C8.4375 7.5135 7.49123 8.45972 6.32812 8.45972ZM8.26547 3.41869C7.89661 3.17409 7.47947 2.99681 7.03125 2.9055V1.4789C7.86389 1.59853 8.62997 1.92703 9.27417 2.40994L8.26547 3.41869ZM5.625 2.9055C5.17678 2.99686 4.75969 3.17414 4.39078 3.41869L3.38203 2.40994C4.02628 1.92708 4.79236 1.59853 5.625 1.4789V2.9055ZM3.39647 4.41304C3.15188 4.7819 2.97459 5.19905 2.88328 5.64726H1.45669C1.57631 4.81462 1.90481 4.04855 2.38772 3.40434L3.39647 4.41304ZM2.88323 7.05347C2.97459 7.50169 3.15188 7.91878 3.39642 8.28769L2.38767 9.29644C1.90481 8.65223 1.57631 7.88615 1.45664 7.05351H2.88323V7.05347ZM4.39078 9.28205C4.75964 9.52664 5.17678 9.70392 5.625 9.79523V11.2218C4.79236 11.1022 4.02628 10.7737 3.38208 10.2907L4.39078 9.28205ZM7.03125 9.79523C7.47947 9.70387 7.89656 9.52659 8.26547 9.28205L9.27422 10.2908C8.63002 10.7737 7.86394 11.1022 7.0313 11.2218V9.79523H7.03125ZM9.25978 8.28769C9.50438 7.91883 9.68166 7.50169 9.77297 7.05347H11.1995C11.0799 7.88611 10.7514 8.65219 10.2685 9.29639L9.25978 8.28769ZM9.77302 5.64722C9.68166 5.199 9.50437 4.7819 9.25983 4.413L10.2686 3.40425C10.7514 4.04845 11.0799 4.81453 11.1996 5.64717H9.77302V5.64722ZM21.8722 6.89442L19.9972 8.76942C19.7226 9.04401 19.2774 9.04401 19.0028 8.76942L17.1278 6.89442C16.4933 6.21103 17.4395 5.26584 18.1222 5.90006L18.7969 6.57473V3.58472C18.7969 2.93855 18.2712 2.41284 17.625 2.41284H13.875C12.9431 2.37825 12.9438 1.04086 13.875 1.00659H17.625C19.0466 1.00659 20.2031 2.16314 20.2031 3.58472V6.57473L20.8778 5.90001C21.5612 5.26556 22.5064 6.21173 21.8722 6.89442ZM9.89062 22.3347C9.89062 22.723 9.57581 23.0378 9.1875 23.0378H5.4375C4.01592 23.0378 2.85938 21.8813 2.85938 20.4597V17.4697L2.18466 18.1444C1.50127 18.7789 0.556078 17.8328 1.1903 17.1501L3.0653 15.2751C3.33989 15.0005 3.78506 15.0005 4.05966 15.2751L5.93466 17.1501C6.56916 17.8335 5.62298 18.7786 4.9403 18.1444L4.26562 17.4697V20.4597C4.26562 21.1059 4.79133 21.6316 5.4375 21.6316H9.1875C9.57581 21.6316 9.89062 21.9464 9.89062 22.3347Z" fill="white"/>
</svg>
